<svg version="1.1" id="Layer_1" xmlns="http://www.w3.org/2000/svg" xmlns:xlink="http://www.w3.org/1999/xlink" x="0px" y="0px"
	 width="100%" viewBox="0 0 453 340" enable-background="new 0 0 453 340" xml:space="preserve">
<path fill="#FFFFFE" opacity="1.000000" stroke="none" 
	d="
M319.000000,341.000000 
	C212.700027,341.000000 106.900047,341.000000 1.050036,341.000000 
	C1.050036,227.735764 1.050036,114.471504 1.050036,1.103619 
	C151.883270,1.103619 302.766632,1.103619 453.825012,1.103619 
	C453.825012,114.333107 453.825012,227.666534 453.825012,341.000000 
	C409.138214,341.000000 364.319122,341.000000 319.000000,341.000000 
M280.338074,46.227623 
	C258.111145,35.923264 234.856308,31.556646 210.395645,34.054600 
	C178.398438,37.322205 150.822998,50.170341 128.134659,72.897835 
	C88.036438,113.065262 77.735657,174.392807 102.072319,225.786621 
	C131.624466,288.194427 205.671112,318.336090 270.424408,293.030243 
	C320.230499,273.565857 348.807404,235.974350 356.413971,183.236008 
	C359.508057,161.783951 356.677795,140.369385 348.688141,119.949265 
	C335.679260,86.701004 313.195435,62.148788 280.338074,46.227623 
z"/>
<path fill="#F7DF05" opacity="1.000000" stroke="none" 
	d="
M280.676575,46.392776 
	C313.195435,62.148788 335.679260,86.701004 348.688141,119.949265 
	C356.677795,140.369385 359.508057,161.783951 356.413971,183.236008 
	C348.807404,235.974350 320.230499,273.565857 270.424408,293.030243 
	C205.671112,318.336090 131.624466,288.194427 102.072319,225.786621 
	C77.735657,174.392807 88.036438,113.065262 128.134659,72.897835 
	C150.822998,50.170341 178.398438,37.322205 210.395645,34.054600 
	C234.856308,31.556646 258.111145,35.923264 280.676575,46.392776 
M309.416779,221.812881 
	C309.588196,221.493591 309.759613,221.174301 309.919220,220.943558 
	C309.919220,220.943558 309.847015,220.890961 310.581329,220.958176 
	C311.540070,219.519485 312.498810,218.080780 313.548035,216.638687 
	C313.548035,216.638687 313.545654,216.548172 314.291351,216.664291 
	C314.683685,215.665558 315.076019,214.666840 315.553436,213.643860 
	C315.553436,213.643860 315.529602,213.558655 316.265747,213.674118 
	C317.819946,210.076675 319.374146,206.479233 320.954498,202.964905 
	C320.954498,202.964905 320.870941,202.940231 321.233154,202.873871 
	C321.320587,202.790848 321.497101,202.670639 321.480530,202.631027 
	C321.394348,202.424591 321.259064,202.238632 320.974762,201.226959 
	C321.980408,196.506622 322.986023,191.786270 324.762329,186.817139 
	C325.119598,186.301422 325.817963,185.761856 325.783783,185.273529 
	C325.113678,175.699570 324.827393,166.059921 323.382233,156.598740 
	C322.828888,152.975998 319.587433,149.763885 317.820160,146.409210 
	C317.820160,146.409210 317.579895,146.330368 317.718506,145.759384 
	C317.440948,145.516373 317.163422,145.273361 316.972412,145.025650 
	C316.972412,145.025650 316.916534,145.091919 317.057709,144.348312 
	C315.900604,142.673569 314.743530,140.998825 313.709808,139.134293 
	C313.709808,139.134293 313.600830,139.317581 313.825958,138.601944 
	C312.427063,136.830338 311.028198,135.058716 309.918488,133.077682 
	C309.918488,133.077682 309.656677,133.320450 309.822174,132.622910 
	C309.186005,132.095413 308.549835,131.567917 307.984009,131.005783 
	C307.984009,131.005783 307.953400,131.077972 307.984161,130.355240 
	C306.285919,128.589920 304.587677,126.824593 302.972260,125.025673 
	C302.972260,125.025673 302.936554,125.107597 302.969208,124.419067 
	C302.298523,123.945480 301.627838,123.471893 301.007751,122.995010 
	C301.007751,122.995010 300.998596,123.044899 301.015137,122.368195 
	C300.353821,121.890976 299.692505,121.413757 299.025299,120.974030 
	C299.025299,120.974030 299.063171,120.971313 299.044342,120.306969 
	C298.386505,119.840652 297.728638,119.374344 297.014465,118.977715 
	C297.014465,118.977715 297.091614,118.932182 297.060181,118.277084 
	C296.409882,117.812103 295.759613,117.347115 295.002167,116.998474 
	C295.002167,116.998474 295.117493,116.890190 295.070801,116.240654 
	C294.418457,115.786697 293.766083,115.332741 293.001221,114.999084 
	C293.001221,114.999084 293.119781,114.884727 293.060211,114.231644 
	C292.393341,113.791870 291.726471,113.352089 291.026581,112.984467 
	C291.026581,112.984467 291.087250,112.933266 291.027039,112.265839 
	C290.338074,111.840279 289.649078,111.414726 289.011627,110.986359 
	C289.011627,110.986359 289.012756,111.037926 288.991241,110.328773 
	C286.951050,108.911263 284.910828,107.493759 282.955231,106.053795 
	C282.955231,106.053795 282.955963,106.141312 282.778442,105.577759 
	C282.422668,105.461441 282.066864,105.345116 281.835846,105.175987 
	C281.835846,105.175987 281.813873,105.309669 281.681244,104.725815 
	C281.322052,104.649200 280.962830,104.572578 280.724792,104.116882 
	C280.724792,104.116882 280.559113,104.478729 280.618561,103.734619 
	C279.613403,103.332283 278.608276,102.929947 277.814880,102.183411 
	C277.814880,102.183411 277.560913,102.497765 277.564087,101.802513 
	C276.958496,101.617188 276.352936,101.431870 275.851715,101.185913 
	C275.851715,101.185913 275.839722,101.306023 275.686340,100.597023 
	C274.676422,100.196350 273.666504,99.795677 272.835999,99.174736 
	C272.835999,99.174736 272.710876,99.429787 272.597870,98.730110 
	C269.974487,97.589996 267.351074,96.449883 264.839996,95.229332 
	C264.839996,95.229332 264.805176,95.363022 264.594482,94.676521 
	C261.318451,93.538246 258.042389,92.399971 254.869232,91.197495 
	C254.869232,91.197495 254.861374,91.318520 254.553925,90.648384 
	C248.714279,89.362938 242.874634,88.077499 236.283737,86.826393 
	C235.810898,86.675011 235.338043,86.523628 234.632141,85.724243 
	C232.063568,85.236839 229.488449,84.311607 226.927750,84.349968 
	C220.945114,84.439568 214.969406,84.991867 208.356720,85.629478 
	C207.899323,85.628433 207.441910,85.627380 206.363327,85.206535 
	C203.288513,85.817238 200.213715,86.427948 196.413910,87.336243 
	C175.016174,92.108856 157.252579,102.652962 143.857407,120.241119 
	C131.744827,136.145172 127.555717,154.959412 123.989098,173.992691 
	C121.724213,186.079224 124.601234,197.067932 131.566788,207.380859 
	C131.644196,207.623932 131.810440,207.749084 132.248413,208.420624 
	C133.274506,209.949951 134.300598,211.479294 135.355042,213.444702 
	C135.489304,213.719498 135.697250,213.916611 136.119843,214.699646 
	C137.353302,216.013519 138.748596,217.210922 139.792435,218.661270 
	C144.487000,225.184067 150.783554,228.689362 159.403137,229.512009 
	C160.594101,229.609451 161.785080,229.706894 163.677231,229.999496 
	C164.160095,229.989059 164.642960,229.978622 165.449142,230.224731 
	C165.974228,230.162125 166.499298,230.099503 167.940109,230.210342 
	C173.675003,230.243225 179.409912,230.276108 185.996216,230.641541 
	C190.318283,230.645050 194.640366,230.648544 199.886612,230.816849 
	C204.885834,230.897919 209.885071,230.978989 215.442764,231.353485 
	C216.281830,231.438095 217.120880,231.522690 218.820236,231.946991 
	C229.563217,233.032974 240.306198,234.118958 251.552658,235.737900 
	C252.466003,236.117416 253.347046,236.683533 254.297607,236.848053 
	C265.812592,238.841202 277.268494,238.232925 288.575653,235.517975 
	C290.854858,234.970734 292.828979,233.153000 295.005585,231.988678 
	C295.005585,231.988678 294.930817,231.936691 295.693787,232.003647 
	C297.809418,230.798203 299.925049,229.592743 302.466278,227.948792 
	C302.738129,227.646729 303.010010,227.344666 303.987091,227.043823 
	C304.952698,225.971817 305.918304,224.899811 306.926788,223.911987 
	C306.926788,223.911987 306.832977,223.922989 307.390900,223.805939 
	C307.575500,223.490616 307.760101,223.175293 307.945496,222.955795 
	C307.945496,222.955795 307.851898,222.935120 308.419281,222.830048 
	C308.591431,222.506195 308.763580,222.182343 308.954712,221.945480 
	C308.954712,221.945480 308.865723,221.942719 309.416779,221.812881 
z"/>
<path fill="#030302" opacity="1.000000" stroke="none" 
	d="
M185.144806,230.308990 
	C179.409912,230.276108 173.675003,230.243225 167.170563,230.048431 
	C165.975937,229.913742 165.550888,229.940964 165.125824,229.968185 
	C164.642960,229.978622 164.160095,229.989059 163.063980,229.647644 
	C161.235992,229.230530 160.021271,229.165283 158.806534,229.100052 
	C150.783554,228.689362 144.487000,225.184067 139.792435,218.661270 
	C138.748596,217.210922 137.353302,216.013519 136.032684,214.148224 
	C135.839020,213.295776 135.632751,213.099701 135.326691,213.008621 
	C134.300598,211.479294 133.274506,209.949951 132.135437,207.943176 
	C131.951035,207.269043 131.818054,207.132141 131.623520,207.055054 
	C124.601234,197.067932 121.724213,186.079224 123.989098,173.992691 
	C127.555717,154.959412 131.744827,136.145172 143.857407,120.241119 
	C157.252579,102.652962 175.016174,92.108856 197.189026,87.227341 
	C200.970947,86.621063 203.977722,86.123695 206.984512,85.626328 
	C207.441910,85.627380 207.899323,85.628433 209.127777,85.599915 
	C218.220963,85.837654 226.543091,86.104950 234.865204,86.372246 
	C235.338043,86.523628 235.810898,86.675011 237.012253,86.961090 
	C243.447632,88.503365 249.154510,89.910942 254.861374,91.318520 
	C254.861374,91.318520 254.869232,91.197495 255.055115,91.490631 
	C258.429077,92.976852 261.617126,94.169937 264.805176,95.363022 
	C264.805176,95.363022 264.839996,95.229332 264.992798,95.538788 
	C267.667389,97.042091 270.189117,98.235939 272.710876,99.429787 
	C272.710876,99.429787 272.835999,99.174736 272.915100,99.554092 
	C273.942719,100.390976 274.891235,100.848495 275.839722,101.306015 
	C275.839722,101.306023 275.851715,101.185913 275.926697,101.477859 
	C276.521393,102.012459 277.041168,102.255112 277.560913,102.497765 
	C277.560913,102.497765 277.814880,102.183411 277.881256,102.601974 
	C278.818115,103.506607 279.688629,103.992668 280.559113,104.478729 
	C280.559113,104.478729 280.724792,104.116882 280.791992,104.535034 
	C281.177429,105.072021 281.495667,105.190849 281.813873,105.309677 
	C281.813873,105.309669 281.835846,105.175987 281.880859,105.464966 
	C282.269226,105.883072 282.612610,106.012192 282.955963,106.141312 
	C282.955963,106.141312 282.955231,106.053795 283.058502,106.364685 
	C285.112091,108.129700 287.062439,109.583817 289.012756,111.037926 
	C289.012756,111.037926 289.011627,110.986359 289.088287,111.271286 
	C289.805725,112.015221 290.446503,112.474243 291.087250,112.933258 
	C291.087250,112.933266 291.026581,112.984467 291.165436,113.216484 
	C291.909454,113.927238 292.514618,114.405983 293.119781,114.884720 
	C293.119781,114.884727 293.001221,114.999084 293.163696,115.213654 
	C293.923248,115.915550 294.520386,116.402870 295.117493,116.890198 
	C295.117493,116.890190 295.002167,116.998474 295.163239,117.215836 
	C295.913391,117.932854 296.502502,118.432526 297.091614,118.932190 
	C297.091614,118.932182 297.014465,118.977715 297.132507,119.228210 
	C297.854767,119.976234 298.458954,120.473770 299.063171,120.971313 
	C299.063171,120.971313 299.025299,120.974030 299.119751,121.243187 
	C299.809021,122.023193 300.403809,122.534042 300.998596,123.044891 
	C300.998596,123.044899 301.007751,122.995010 301.052551,123.294403 
	C301.710419,124.098396 302.323486,124.602997 302.936554,125.107590 
	C302.936554,125.107597 302.972260,125.025673 302.999237,125.370689 
	C304.668610,127.503128 306.311005,129.290543 307.953400,131.077972 
	C307.953400,131.077972 307.984009,131.005783 307.975098,131.328522 
	C308.529694,132.207642 309.093201,132.764038 309.656677,133.320450 
	C309.656677,133.320450 309.918488,133.077682 309.833862,133.518494 
	C311.033112,135.745377 312.316986,137.531479 313.600830,139.317581 
	C313.600830,139.317581 313.709808,139.134293 313.684143,139.571381 
	C314.744507,141.702957 315.830536,143.397446 316.916534,145.091919 
	C316.916534,145.091919 316.972412,145.025650 316.912964,145.303101 
	C317.095673,145.830475 317.337769,146.080429 317.579895,146.330368 
	C317.579895,146.330368 317.820160,146.409210 317.761719,146.745270 
	C324.582001,159.657379 325.080444,173.236847 323.991638,187.065933 
	C322.986023,191.786270 321.980408,196.506622 320.975830,201.855316 
	C320.976929,202.483673 320.870941,202.940231 320.870941,202.940231 
	C320.870941,202.940231 320.954498,202.964905 320.610046,203.050674 
	C318.686920,206.610519 317.108276,210.084579 315.529602,213.558655 
	C315.529602,213.558655 315.553436,213.643860 315.258453,213.807632 
	C314.490845,214.830322 314.018250,215.689240 313.545654,216.548172 
	C313.545654,216.548172 313.548035,216.638687 313.226105,216.768539 
	C311.885132,218.229248 310.866089,219.560120 309.847046,220.890961 
	C309.847015,220.890961 309.919220,220.943558 309.640808,220.949402 
	C309.196808,221.284409 309.031250,221.613556 308.865723,221.942719 
	C308.865723,221.942719 308.954712,221.945480 308.663513,221.956802 
	C308.198822,222.290466 308.025360,222.612793 307.851898,222.935120 
	C307.851898,222.935120 307.945496,222.955795 307.660645,222.960083 
	C307.194824,223.283920 307.013885,223.603455 306.832977,223.922974 
	C306.832977,223.922989 306.926788,223.911987 306.598907,223.941254 
	C305.274628,224.994537 304.278259,226.018570 303.281860,227.042603 
	C303.010010,227.344666 302.738129,227.646729 301.916016,228.276489 
	C299.220764,229.715012 297.075775,230.825851 294.930817,231.936707 
	C294.930817,231.936691 295.005585,231.988678 294.587677,232.010925 
	C286.347565,233.460632 278.574249,235.479797 270.687958,236.131058 
	C264.211365,236.665863 257.600525,235.575180 251.049179,235.204956 
	C240.306198,234.118958 229.563217,233.032974 218.159439,231.539062 
	C216.627197,231.107452 215.755737,231.083740 214.884293,231.060043 
	C209.885071,230.978989 204.885834,230.897919 199.095749,230.497971 
	C193.918198,230.222397 189.531494,230.265701 185.144806,230.308990 
M206.209167,161.924103 
	C200.864304,158.400421 200.432968,152.495255 199.085892,147.071976 
	C195.832977,133.975830 184.685211,127.809250 171.964127,132.106461 
	C162.381897,135.343338 154.568298,141.214462 150.313705,150.226395 
	C145.375748,160.685822 141.440689,171.676743 137.824402,182.684692 
	C134.649963,192.347610 136.191879,201.786255 141.625214,210.563599 
	C147.436386,219.951279 155.995346,225.848450 166.620117,226.758484 
	C181.590714,228.040756 196.707306,227.537781 211.751999,228.067093 
	C220.168015,228.363190 228.573761,229.099670 236.968201,229.822800 
	C247.629059,230.741165 258.271515,232.654831 268.925934,232.684357 
	C285.186401,232.729446 298.387695,222.093628 302.561707,208.542999 
	C307.300934,193.157440 305.930176,177.870010 298.832397,163.345184 
	C290.572021,146.441315 278.007904,135.586075 258.192932,135.017822 
	C249.568237,134.770477 237.884995,140.025650 236.935715,151.833038 
	C236.540848,156.744171 234.322601,161.112488 229.156540,163.735901 
	C222.004501,159.075180 214.714066,156.413971 206.209167,161.924103 
z"/>
<path fill="#DACA2E" opacity="1.000000" stroke="none" 
	d="
M251.300919,235.471436 
	C257.600525,235.575180 264.211365,236.665863 270.687958,236.131058 
	C278.574249,235.479797 286.347565,233.460632 294.556763,231.977081 
	C292.828979,233.153000 290.854858,234.970734 288.575653,235.517975 
	C277.268494,238.232925 265.812592,238.841202 254.297607,236.848053 
	C253.347046,236.683533 252.466003,236.117416 251.300919,235.471436 
z"/>
<path fill="#CDC14F" opacity="1.000000" stroke="none" 
	d="
M324.376984,186.941528 
	C325.080444,173.236847 324.582001,159.657379 317.637115,146.722992 
	C319.587433,149.763885 322.828888,152.975998 323.382233,156.598740 
	C324.827393,166.059921 325.113678,175.699570 325.783783,185.273529 
	C325.817963,185.761856 325.119598,186.301422 324.376984,186.941528 
z"/>
<path fill="#CDC14F" opacity="1.000000" stroke="none" 
	d="
M234.748672,86.048248 
	C226.543091,86.104950 218.220963,85.837654 209.444870,85.463570 
	C214.969406,84.991867 220.945114,84.439568 226.927750,84.349968 
	C229.488449,84.311607 232.063568,85.236839 234.748672,86.048248 
z"/>
<path fill="#CDC14F" opacity="1.000000" stroke="none" 
	d="
M254.707642,90.983452 
	C249.154510,89.910942 243.447632,88.503365 237.387878,86.943924 
	C242.874634,88.077499 248.714279,89.362938 254.707642,90.983452 
z"/>
<path fill="#DDCF49" opacity="1.000000" stroke="none" 
	d="
M315.897675,213.616394 
	C317.108276,210.084579 318.686920,206.610519 320.596985,203.009125 
	C319.374146,206.479233 317.819946,210.076675 315.897675,213.616394 
z"/>
<path fill="#CDC14F" opacity="1.000000" stroke="none" 
	d="
M264.699829,95.019775 
	C261.617126,94.169937 258.429077,92.976852 255.003677,91.522736 
	C258.042389,92.399971 261.318451,93.538246 264.699829,95.019775 
z"/>
<path fill="#251F01" opacity="1.000000" stroke="none" 
	d="
M185.570511,230.475266 
	C189.531494,230.265701 193.918198,230.222397 198.633667,230.415573 
	C194.640366,230.648544 190.318283,230.645050 185.570511,230.475266 
z"/>
<path fill="#DACA2E" opacity="1.000000" stroke="none" 
	d="
M295.312317,231.970184 
	C297.075775,230.825851 299.220764,229.715012 301.703186,228.495728 
	C299.925049,229.592743 297.809418,230.798203 295.312317,231.970184 
z"/>
<path fill="#CDC14F" opacity="1.000000" stroke="none" 
	d="
M272.654358,99.079948 
	C270.189117,98.235939 267.667389,97.042091 264.936646,95.579010 
	C267.351074,96.449883 269.974487,97.589996 272.654358,99.079948 
z"/>
<path fill="#CDC14F" opacity="1.000000" stroke="none" 
	d="
M206.673920,85.416435 
	C203.977722,86.123695 200.970947,86.621063 197.551529,87.078537 
	C200.213715,86.427948 203.288513,85.817238 206.673920,85.416435 
z"/>
<path fill="#CDC14F" opacity="1.000000" stroke="none" 
	d="
M307.968781,130.716614 
	C306.311005,129.290543 304.668610,127.503128 302.957825,125.387482 
	C304.587677,126.824593 306.285919,128.589920 307.968781,130.716614 
z"/>
<path fill="#CDC14F" opacity="1.000000" stroke="none" 
	d="
M289.002014,110.683350 
	C287.062439,109.583817 285.112091,108.129700 283.016205,106.375916 
	C284.910828,107.493759 286.951050,108.911263 289.002014,110.683350 
z"/>
<path fill="#CDC14F" opacity="1.000000" stroke="none" 
	d="
M313.713379,138.959763 
	C312.316986,137.531479 311.033112,135.745377 309.689270,133.623199 
	C311.028198,135.058716 312.427063,136.830338 313.713379,138.959763 
z"/>
<path fill="#DDCF49" opacity="1.000000" stroke="none" 
	d="
M310.214172,220.924576 
	C310.866089,219.560120 311.885132,218.229248 313.180847,216.770233 
	C312.498810,218.080780 311.540070,219.519485 310.214172,220.924576 
z"/>
<path fill="#CDC14F" opacity="1.000000" stroke="none" 
	d="
M316.987122,144.720123 
	C315.830536,143.397446 314.744507,141.702957 313.622467,139.666290 
	C314.743530,140.998825 315.900604,142.673569 316.987122,144.720123 
z"/>
<path fill="#DDCF49" opacity="1.000000" stroke="none" 
	d="
M303.634460,227.043213 
	C304.278259,226.018570 305.274628,224.994537 306.577484,223.899155 
	C305.918304,224.899811 304.952698,225.971817 303.634460,227.043213 
z"/>
<path fill="#CDC14F" opacity="1.000000" stroke="none" 
	d="
M275.763031,100.951523 
	C274.891235,100.848495 273.942719,100.390976 272.825409,99.664230 
	C273.666504,99.795677 274.676422,100.196350 275.763031,100.951523 
z"/>
<path fill="#DDCF49" opacity="1.000000" stroke="none" 
	d="
M313.918518,216.606232 
	C314.018250,215.689240 314.490845,214.830322 315.215912,213.819763 
	C315.076019,214.666840 314.683685,215.665558 313.918518,216.606232 
z"/>
<path fill="#CDC14F" opacity="1.000000" stroke="none" 
	d="
M280.588837,104.106674 
	C279.688629,103.992668 278.818115,103.506607 277.775391,102.774078 
	C278.608276,102.929947 279.613403,103.332283 280.588837,104.106674 
z"/>
<path fill="#251F01" opacity="1.000000" stroke="none" 
	d="
M159.104828,229.306030 
	C160.021271,229.165283 161.235992,229.230530 162.713379,229.550049 
	C161.785080,229.706894 160.594101,229.609451 159.104828,229.306030 
z"/>
<path fill="#CDC14F" opacity="1.000000" stroke="none" 
	d="
M309.739441,132.971680 
	C309.093201,132.764038 308.529694,132.207642 307.939941,131.345825 
	C308.549835,131.567917 309.186005,132.095413 309.739441,132.971680 
z"/>
<path fill="#251F01" opacity="1.000000" stroke="none" 
	d="
M215.163528,231.206757 
	C215.755737,231.083740 216.627197,231.107452 217.729294,231.369217 
	C217.120880,231.522690 216.281830,231.438095 215.163528,231.206757 
z"/>
<path fill="#CDC14F" opacity="1.000000" stroke="none" 
	d="
M302.952881,124.763329 
	C302.323486,124.602997 301.710419,124.098396 301.027252,123.296051 
	C301.627838,123.471893 302.298523,123.945480 302.952881,124.763329 
z"/>
<path fill="#CDC14F" opacity="1.000000" stroke="none" 
	d="
M291.057129,112.599548 
	C290.446503,112.474243 289.805725,112.015221 289.062531,111.272690 
	C289.649078,111.414726 290.338074,111.840279 291.057129,112.599548 
z"/>
<path fill="#CDC14F" opacity="1.000000" stroke="none" 
	d="
M297.075897,118.604637 
	C296.502502,118.432526 295.913391,117.932854 295.216797,117.157654 
	C295.759613,117.347115 296.409882,117.812103 297.075897,118.604637 
z"/>
<path fill="#CDC14F" opacity="1.000000" stroke="none" 
	d="
M293.089996,114.558182 
	C292.514618,114.405983 291.909454,113.927238 291.181946,113.180405 
	C291.726471,113.352089 292.393341,113.791870 293.089996,114.558182 
z"/>
<path fill="#CDC14F" opacity="1.000000" stroke="none" 
	d="
M299.053772,120.639137 
	C298.458954,120.473770 297.854767,119.976234 297.160675,119.193359 
	C297.728638,119.374344 298.386505,119.840652 299.053772,120.639137 
z"/>
<path fill="#CDC14F" opacity="1.000000" stroke="none" 
	d="
M301.006866,122.706543 
	C300.403809,122.534042 299.809021,122.023193 299.122711,121.224442 
	C299.692505,121.413757 300.353821,121.890976 301.006866,122.706543 
z"/>
<path fill="#CDC14F" opacity="1.000000" stroke="none" 
	d="
M295.094147,116.565430 
	C294.520386,116.402870 293.923248,115.915550 293.219940,115.153503 
	C293.766083,115.332741 294.418457,115.786697 295.094147,116.565430 
z"/>
<path fill="#CDC14F" opacity="1.000000" stroke="none" 
	d="
M277.562500,102.150139 
	C277.041168,102.255112 276.521393,102.012459 275.874512,101.508179 
	C276.352936,101.431870 276.958496,101.617188 277.562500,102.150139 
z"/>
<path fill="#251F01" opacity="1.000000" stroke="none" 
	d="
M165.287476,230.096466 
	C165.550888,229.940964 165.975937,229.913742 166.712692,229.961700 
	C166.499298,230.099503 165.974228,230.162125 165.287476,230.096466 
z"/>
<path fill="#CDC14F" opacity="1.000000" stroke="none" 
	d="
M282.867188,105.859535 
	C282.612610,106.012192 282.269226,105.883072 281.818481,105.491371 
	C282.066864,105.345116 282.422668,105.461441 282.867188,105.859535 
z"/>
<path fill="#DDCF49" opacity="1.000000" stroke="none" 
	d="
M307.111938,223.864456 
	C307.013885,223.603455 307.194824,223.283920 307.660217,222.912170 
	C307.760101,223.175293 307.575500,223.490616 307.111938,223.864456 
z"/>
<path fill="#DDCF49" opacity="1.000000" stroke="none" 
	d="
M308.135590,222.882584 
	C308.025360,222.612793 308.198822,222.290466 308.653992,221.913315 
	C308.763580,222.182343 308.591431,222.506195 308.135590,222.882584 
z"/>
<path fill="#DDCF49" opacity="1.000000" stroke="none" 
	d="
M309.141235,221.877792 
	C309.031250,221.613556 309.196808,221.284409 309.646667,220.905121 
	C309.759613,221.174301 309.588196,221.493591 309.141235,221.877792 
z"/>
<path fill="#1F1800" opacity="1.000000" stroke="none" 
	d="
M135.340866,213.226654 
	C135.632751,213.099701 135.839020,213.295776 135.962189,213.816406 
	C135.697250,213.916611 135.489304,213.719498 135.340866,213.226654 
z"/>
<path fill="#1F1800" opacity="1.000000" stroke="none" 
	d="
M131.595154,207.217957 
	C131.818054,207.132141 131.951035,207.269043 132.044006,207.611023 
	C131.810440,207.749084 131.644196,207.623932 131.595154,207.217957 
z"/>
<path fill="#DDCF49" opacity="1.000000" stroke="none" 
	d="
M321.052063,202.907043 
	C320.870941,202.940231 320.976929,202.483673 321.058899,202.264618 
	C321.259064,202.238632 321.394348,202.424591 321.480530,202.631027 
	C321.497101,202.670639 321.320587,202.790848 321.052063,202.907043 
z"/>
<path fill="#CDC14F" opacity="1.000000" stroke="none" 
	d="
M281.747559,105.017746 
	C281.495667,105.190849 281.177429,105.072021 280.731445,104.724579 
	C280.962830,104.572578 281.322052,104.649200 281.747559,105.017746 
z"/>
<path fill="#CDC14F" opacity="1.000000" stroke="none" 
	d="
M317.649200,146.044876 
	C317.337769,146.080429 317.095673,145.830475 316.869690,145.305450 
	C317.163422,145.273361 317.440948,145.516373 317.649200,146.044876 
z"/>
<path fill="#F3F3F3" opacity="1.000000" stroke="none" 
	d="
M229.830170,163.869781 
	C234.322601,161.112488 236.540848,156.744171 236.935715,151.833038 
	C237.884995,140.025650 249.568237,134.770477 258.192932,135.017822 
	C278.007904,135.586075 290.572021,146.441315 298.832397,163.345184 
	C305.930176,177.870010 307.300934,193.157440 302.561707,208.542999 
	C298.387695,222.093628 285.186401,232.729446 268.925934,232.684357 
	C258.271515,232.654831 247.629059,230.741165 236.968201,229.822800 
	C228.573761,229.099670 220.168015,228.363190 211.751999,228.067093 
	C196.707306,227.537781 181.590714,228.040756 166.620117,226.758484 
	C155.995346,225.848450 147.436386,219.951279 141.625214,210.563599 
	C136.191879,201.786255 134.649963,192.347610 137.824402,182.684692 
	C141.440689,171.676743 145.375748,160.685822 150.313705,150.226395 
	C154.568298,141.214462 162.381897,135.343338 171.964127,132.106461 
	C184.685211,127.809250 195.832977,133.975830 199.085892,147.071976 
	C200.432968,152.495255 200.864304,158.400421 206.504822,162.391968 
	C203.093262,166.870682 199.386032,170.881531 194.796326,175.847168 
	C197.778412,176.256729 199.345093,176.737610 200.873199,176.636429 
	C207.991974,176.165039 215.102890,175.565201 222.211273,174.949570 
	C230.562836,174.226257 232.309601,171.652725 229.830170,163.869781 
M262.755127,174.268677 
	C258.428436,174.686676 254.108215,175.527374 253.394257,180.717010 
	C252.730865,185.539047 255.332825,189.429749 259.596893,191.071320 
	C263.293518,192.494446 267.655853,193.229294 271.567139,192.808975 
	C277.390411,192.183182 279.578735,187.019775 277.199280,181.594849 
	C274.562469,175.583130 269.206024,174.676712 262.755127,174.268677 
M157.967285,172.525970 
	C157.006241,179.479141 160.442368,183.353500 167.353333,182.917511 
	C172.223038,182.610291 176.652542,180.780792 179.003647,176.451538 
	C180.355591,173.962067 181.354721,170.073105 180.316467,167.831238 
	C179.265945,165.562912 175.636185,163.533524 172.908630,163.186066 
	C166.156387,162.325882 161.177826,165.670013 157.967285,172.525970 
z"/>
<path fill="#717171" opacity="1.000000" stroke="none" 
	d="
M229.493347,163.802841 
	C232.309601,171.652725 230.562836,174.226257 222.211273,174.949570 
	C215.102890,175.565201 207.991974,176.165039 200.873199,176.636429 
	C199.345093,176.737610 197.778412,176.256729 194.796326,175.847168 
	C199.386032,170.881531 203.093262,166.870682 206.820007,162.525513 
	C214.714066,156.413971 222.004501,159.075180 229.493347,163.802841 
z"/>
<path fill="#080808" opacity="1.000000" stroke="none" 
	d="
M263.168365,174.249084 
	C269.206024,174.676712 274.562469,175.583130 277.199280,181.594849 
	C279.578735,187.019775 277.390411,192.183182 271.567139,192.808975 
	C267.655853,193.229294 263.293518,192.494446 259.596893,191.071320 
	C255.332825,189.429749 252.730865,185.539047 253.394257,180.717010 
	C254.108215,175.527374 258.428436,174.686676 263.168365,174.249084 
z"/>
<path fill="#080808" opacity="1.000000" stroke="none" 
	d="
M158.069229,172.169998 
	C161.177826,165.670013 166.156387,162.325882 172.908630,163.186066 
	C175.636185,163.533524 179.265945,165.562912 180.316467,167.831238 
	C181.354721,170.073105 180.355591,173.962067 179.003647,176.451538 
	C176.652542,180.780792 172.223038,182.610291 167.353333,182.917511 
	C160.442368,183.353500 157.006241,179.479141 158.069229,172.169998 
z"/>
</svg>